<?xml version="1.0" encoding="UTF-8" standalone="no"?>
<!-- Created with Inkscape (http://www.inkscape.org/) -->

<svg
   width="5.5562501mm"
   height="5.2916589mm"
   viewBox="0 0 5.5562501 5.2916589"
   version="1.1"
   id="svg1"
   xml:space="preserve"
   xmlns:inkscape="http://www.inkscape.org/namespaces/inkscape"
   xmlns:sodipodi="http://sodipodi.sourceforge.net/DTD/sodipodi-0.dtd"
   xmlns="http://www.w3.org/2000/svg"
   xmlns:svg="http://www.w3.org/2000/svg"><sodipodi:namedview
     id="namedview1"
     pagecolor="#ffffff"
     bordercolor="#999999"
     borderopacity="1"
     inkscape:showpageshadow="2"
     inkscape:pageopacity="0"
     inkscape:pagecheckerboard="0"
     inkscape:deskcolor="#d1d1d1"
     inkscape:document-units="mm"><inkscape:page
       x="0"
       y="0"
       width="5.5562501"
       height="5.2916589"
       id="page2"
       margin="0"
       bleed="0" /></sodipodi:namedview><defs
     id="defs1" /><g
     inkscape:label="Camada 1"
     inkscape:groupmode="layer"
     id="layer1"
     transform="translate(-123.26252,-128.61475)"><g
       style="fill:#000000"
       id="g2"
       transform="matrix(0.00661458,0,0,0.00661458,122.99795,134.17098)"
       inkscape:export-filename="Desliike_preto.png"
       inkscape:export-xdpi="96"
       inkscape:export-ydpi="96"><path
         d="m 240,-840 h 440 v 520 L 400,-40 350,-90 q -7,-7 -11.5,-19 -4.5,-12 -4.5,-23 v -14 l 44,-174 H 120 q -32,0 -56,-24 -24,-24 -24,-56 v -80 q 0,-7 2,-15 2,-8 4,-15 l 120,-282 q 9,-20 30,-34 21,-14 44,-14 z m 360,80 H 240 l -120,280 v 80 h 360 l -54,220 174,-174 z m 0,406 v -406 z m 80,34 v -80 H 800 V -760 H 680 v -80 h 200 v 520 z"
         id="path1-4" /></g><rect
       style="fill:#000000;fill-opacity:1;stroke:#fff8f8;stroke-width:0;stroke-linejoin:round"
       id="rect11"
       width="1.1324292"
       height="2.6501179"
       x="127.28738"
       y="129.02689" /><rect
       style="fill:#000000;fill-opacity:1;stroke:#fff8f8;stroke-width:0;stroke-linejoin:round"
       id="rect12"
       width="3.3856132"
       height="2.7435141"
       x="124.46214"
       y="129.07358" /><rect
       style="fill:#000000;fill-opacity:1;stroke:#fff8f8;stroke-width:0;stroke-linejoin:round"
       id="rect13"
       width="0.3268868"
       height="0.54870284"
       x="125.54787"
       y="132.57594" /><rect
       style="fill:#000000;fill-opacity:1;stroke:#fff8f8;stroke-width:0;stroke-linejoin:round"
       id="rect14"
       width="1.0857311"
       height="0.93396223"
       x="125.89811"
       y="131.51357" /><rect
       style="fill:#000000;fill-opacity:1;stroke:#fff8f8;stroke-width:0;stroke-linejoin:round"
       id="rect15"
       width="0.56037736"
       height="0.92228776"
       x="125.73466"
       y="132.21404" /><rect
       style="fill:#000000;fill-opacity:1;stroke:#fff8f8;stroke-width:0;stroke-linejoin:round"
       id="rect16"
       width="0.47865567"
       height="0.39693394"
       x="126.14327"
       y="132.23738" /><rect
       style="fill:#000000;fill-opacity:1;stroke:#fff8f8;stroke-width:0;stroke-linejoin:round"
       id="rect17"
       width="0.65377361"
       height="2.2181604"
       x="124.10023"
       y="129.35378" /><rect
       style="fill:#000000;fill-opacity:0;stroke:#fff8f8;stroke-width:0;stroke-linejoin:round"
       id="rect18"
       width="1.0156839"
       height="1.5176886"
       x="123.74999"
       y="130.13597" /><rect
       style="fill:#000000;fill-opacity:1;stroke:#fff8f8;stroke-width:0;stroke-linejoin:round"
       id="rect29"
       width="0.82551378"
       height="1.6180071"
       x="123.71149"
       y="130.134" /></g></svg>
