<?xml version="1.0" encoding="UTF-8" standalone="no"?>
<!-- Created with Inkscape (http://www.inkscape.org/) -->

<svg
   width="4.7528105mm"
   height="4.7555075mm"
   viewBox="0 0 4.7528105 4.7555075"
   version="1.1"
   id="svg1"
   xml:space="preserve"
   xmlns:inkscape="http://www.inkscape.org/namespaces/inkscape"
   xmlns:sodipodi="http://sodipodi.sourceforge.net/DTD/sodipodi-0.dtd"
   xmlns="http://www.w3.org/2000/svg"
   xmlns:svg="http://www.w3.org/2000/svg"><sodipodi:namedview
     id="namedview1"
     pagecolor="#ffffff"
     bordercolor="#999999"
     borderopacity="1"
     inkscape:showpageshadow="2"
     inkscape:pageopacity="0"
     inkscape:pagecheckerboard="0"
     inkscape:deskcolor="#d1d1d1"
     inkscape:document-units="mm"><inkscape:page
       x="0"
       y="0"
       width="4.7528105"
       height="4.7555075"
       id="page2"
       margin="0"
       bleed="0" /></sodipodi:namedview><defs
     id="defs1" /><g
     inkscape:label="Camada 1"
     inkscape:groupmode="layer"
     id="layer1"
     transform="translate(-83.311763,-139.71423)"><g
       style="fill:#000000"
       id="g3"
       transform="matrix(0.00661458,0,0,0.00661458,82.514536,145.2663)"><path
         d="m 200,-120 q -33,0 -56.5,-23.5 Q 120,-167 120,-200 v -560 q 0,-33 23.5,-56.5 Q 167,-840 200,-840 h 560 q 33,0 56.5,23.5 23.5,23.5 23.5,56.5 v 560 q 0,33 -23.5,56.5 Q 793,-120 760,-120 Z m 0,-80 H 760 V -760 H 200 Z m 40,-80 H 720 L 570,-480 450,-320 360,-440 Z m -40,80 v -560 z"
         id="path1-7" /></g><path
       style="fill:#ffffff;fill-opacity:1;stroke:#fff8f8;stroke-width:0;stroke-linejoin:round"
       d="m 316.4357,545.97606 c -0.56996,-0.12285 -1.11549,-0.56805 -1.37824,-1.12476 -0.19291,-0.40874 -0.18356,0.0166 -0.17448,-7.93711 0.008,-6.97994 0.0105,-7.26061 0.0664,-7.42573 0.24047,-0.71049 0.81739,-1.24285 1.50468,-1.38845 0.18577,-0.0394 1.21406,-0.0458 7.41683,-0.0462 6.53621,-4.9e-4 7.2219,0.004 7.42573,0.0502 0.73589,0.16618 1.35527,0.78703 1.50591,1.50949 0.0392,0.1879 0.0443,1.22542 0.0373,7.52681 l -0.008,7.30886 -0.0819,0.2239 c -0.23735,0.64908 -0.82562,1.16842 -1.47816,1.30495 -0.32043,0.067 -14.52443,0.0652 -14.83584,-0.002 z m 14.44584,-8.93707 v -7.02012 h -7.02012 -7.02012 v 7.02012 7.02012 h 7.02012 7.02012 z"
       id="path27"
       transform="scale(0.26458333)" /><path
       style="fill:#ffffff;fill-opacity:1;stroke:#fff8f8;stroke-width:0;stroke-linejoin:round"
       d="m 317.97126,541.92967 c 0.0421,-0.0558 0.70541,-0.94031 1.47401,-1.96563 0.76861,-1.02533 1.40801,-1.86423 1.4209,-1.86423 0.0129,0 0.52453,0.66806 1.13698,1.48458 l 1.11353,1.48457 1.49945,-1.99945 1.49946,-1.99945 1.85256,2.47012 c 1.01891,1.35857 1.85257,2.4748 1.85257,2.48051 0,0.006 -2.68335,0.0104 -5.963,0.0104 h -5.96301 z"
       id="path28"
       transform="scale(0.26458333)" /></g></svg>
