<?xml version="1.0" encoding="UTF-8" standalone="no"?>
<!-- Created with Inkscape (http://www.inkscape.org/) -->

<svg
   width="5.556242mm"
   height="5.2916508mm"
   viewBox="0 0 5.556242 5.2916508"
   version="1.1"
   id="svg1"
   xml:space="preserve"
   xmlns:inkscape="http://www.inkscape.org/namespaces/inkscape"
   xmlns:sodipodi="http://sodipodi.sourceforge.net/DTD/sodipodi-0.dtd"
   xmlns="http://www.w3.org/2000/svg"
   xmlns:svg="http://www.w3.org/2000/svg"><sodipodi:namedview
     id="namedview1"
     pagecolor="#ffffff"
     bordercolor="#999999"
     borderopacity="1"
     inkscape:showpageshadow="2"
     inkscape:pageopacity="0"
     inkscape:pagecheckerboard="0"
     inkscape:deskcolor="#d1d1d1"
     inkscape:document-units="mm"><inkscape:page
       x="0"
       y="0"
       width="5.556242"
       height="5.2916508"
       id="page2"
       margin="0"
       bleed="0" /></sodipodi:namedview><defs
     id="defs1" /><g
     inkscape:label="Camada 1"
     inkscape:groupmode="layer"
     id="layer1"
     transform="translate(-117.31884,-148.03083)"><g
       style="fill:#000000"
       id="g4"
       transform="matrix(0.00661458,0,0,0.00661458,116.78967,154.11623)"
       inkscape:export-filename="Like_preto.png"
       inkscape:export-xdpi="96"
       inkscape:export-ydpi="96"><path
         d="M 720,-120 H 280 v -520 l 280,-280 50,50 q 7,7 11.5,19 4.5,12 4.5,23 v 14 l -44,174 h 258 q 32,0 56,24 24,24 24,56 v 80 q 0,7 -2,15 -2,8 -4,15 l -120,282 q -9,20 -30,34 -21,14 -44,14 z m -360,-80 h 360 l 120,-280 v -80 H 480 l 54,-220 -174,174 z m 0,-406 v 406 z m -80,-34 v 80 H 160 v 360 h 120 v 80 H 80 v -520 z"
         id="path1-2" /></g><path
       style="fill:#000000;fill-opacity:1;stroke:#fff8f8;stroke-width:0;stroke-linejoin:round"
       d="m 445.43381,572.99688 v -4.4786 h 1.47817 1.47816 v 4.4786 4.47861 h -1.47816 -1.47817 z"
       id="path4"
       transform="scale(0.26458333)" /><rect
       style="fill:#000000;fill-opacity:1;stroke:#fff8f8;stroke-width:0;stroke-linejoin:round"
       id="rect4"
       width="4.0977592"
       height="2.6851416"
       x="117.77264"
       y="150.21616" /><rect
       style="fill:#000000;fill-opacity:1;stroke:#fff8f8;stroke-width:0;stroke-linejoin:round"
       id="rect5"
       width="1.1090802"
       height="1.435967"
       x="121.00648"
       y="150.64812" /><rect
       style="fill:#000000;fill-opacity:1;stroke:#fff8f8;stroke-width:0;stroke-linejoin:round"
       id="rect6"
       width="1.2024764"
       height="1.3075472"
       x="121.41509"
       y="150.25117" /><rect
       style="fill:#000000;fill-opacity:1;stroke:#fff8f8;stroke-width:0;stroke-linejoin:round"
       id="rect7"
       width="1.4709905"
       height="0.57205188"
       x="118.8467"
       y="149.93597" /><rect
       style="fill:#000000;fill-opacity:1;stroke:#fff8f8;stroke-width:0;stroke-linejoin:round"
       id="rect8"
       width="0.53702825"
       height="1.3542452"
       x="119.97913"
       y="148.64009" /><rect
       style="fill:#000000;fill-opacity:1;stroke:#fff8f8;stroke-width:0;stroke-linejoin:round"
       id="rect9"
       width="1.0740565"
       height="1.1791273"
       x="118.97512"
       y="149.52736" /><rect
       style="fill:#000000;fill-opacity:1;stroke:#fff8f8;stroke-width:0;stroke-linejoin:round"
       id="rect10"
       width="0.61875004"
       height="0.75884432"
       x="119.68726"
       y="149.04871" /></g></svg>
