<?xml version="1.0" encoding="UTF-8" standalone="no"?>
<!-- Created with Inkscape (http://www.inkscape.org/) -->

<svg
   width="5.2739029mm"
   height="5.2736125mm"
   viewBox="0 0 5.2739029 5.2736125"
   version="1.1"
   id="svg1"
   xml:space="preserve"
   xmlns:inkscape="http://www.inkscape.org/namespaces/inkscape"
   xmlns:sodipodi="http://sodipodi.sourceforge.net/DTD/sodipodi-0.dtd"
   xmlns="http://www.w3.org/2000/svg"
   xmlns:svg="http://www.w3.org/2000/svg"><sodipodi:namedview
     id="namedview1"
     pagecolor="#ffffff"
     bordercolor="#999999"
     borderopacity="1"
     inkscape:showpageshadow="2"
     inkscape:pageopacity="0"
     inkscape:pagecheckerboard="0"
     inkscape:deskcolor="#d1d1d1"
     inkscape:document-units="mm"><inkscape:page
       x="0"
       y="0"
       width="5.2739029"
       height="5.2736125"
       id="page2"
       margin="0"
       bleed="0" /></sodipodi:namedview><defs
     id="defs1" /><g
     inkscape:label="Camada 1"
     inkscape:groupmode="layer"
     id="layer1"
     transform="translate(-86.951836,-158.8709)"><g
       style="fill:#000000"
       id="g1"
       transform="matrix(0.00661458,0,0,0.00661458,86.410961,164.68239)"><path
         d="m 620,-520 q 25,0 42.5,-17.5 Q 680,-555 680,-580 680,-605 662.5,-622.5 645,-640 620,-640 q -25,0 -42.5,17.5 -17.5,17.5 -17.5,42.5 0,25 17.5,42.5 17.5,17.5 42.5,17.5 z m -280,0 q 25,0 42.5,-17.5 Q 400,-555 400,-580 400,-605 382.5,-622.5 365,-640 340,-640 q -25,0 -42.5,17.5 -17.5,17.5 -17.5,42.5 0,25 17.5,42.5 17.5,17.5 42.5,17.5 z m 140,260 q 68,0 123.5,-38.5 Q 659,-337 684,-400 H 276 q 25,63 80.5,101.5 Q 412,-260 480,-260 Z m 0,180 Q 397,-80 324,-111.5 251,-143 197,-197 143,-251 111.5,-324 80,-397 80,-480 q 0,-83 31.5,-156 31.5,-73 85.5,-127 54,-54 127,-85.5 73,-31.5 156,-31.5 83,0 156,31.5 73,31.5 127,85.5 54,54 85.5,127 31.5,73 31.5,156 0,83 -31.5,156 -31.5,73 -85.5,127 -54,54 -127,85.5 Q 563,-80 480,-80 Z m 0,-400 z m 0,320 q 134,0 227,-93 93,-93 93,-227 0,-134 -93,-227 -93,-93 -227,-93 -134,0 -227,93 -93,93 -93,227 0,134 93,227 93,93 227,93 z"
         id="path1" /></g><path
       style="fill:#ffffff;fill-opacity:0;stroke:#fff8f8;stroke-width:0;stroke-linejoin:round"
       d="m 334.88063,609.37325 c -0.12134,-0.0158 -0.29466,-0.0598 -0.38516,-0.0979 -0.23125,-0.0974 -0.59504,-0.45136 -0.73317,-0.71347 -0.10248,-0.19447 -0.11673,-0.27264 -0.11673,-0.64067 0,-0.36944 0.014,-0.44584 0.11834,-0.64385 0.16037,-0.30448 0.54926,-0.65285 0.83457,-0.74761 0.34923,-0.116 0.87512,-0.0755 1.18086,0.0909 0.59726,0.32507 0.90031,0.98987 0.74259,1.629 -0.18805,0.76204 -0.86374,1.22461 -1.6413,1.12364 z"
       id="path18"
       transform="scale(0.26458333)" /><path
       style="fill:#ffffff;fill-opacity:0;stroke:#fff8f8;stroke-width:0;stroke-linejoin:round"
       d="m 341.53199,609.28563 c -0.26875,-0.10573 -0.62058,-0.42776 -0.75481,-0.69088 -0.19384,-0.37996 -0.19384,-0.96717 0,-1.34713 0.142,-0.27834 0.48519,-0.58531 0.77672,-0.69473 0.34815,-0.13067 0.86398,-0.112 1.17968,0.0427 0.27964,0.13703 0.5495,0.40671 0.68739,0.68694 0.0916,0.18615 0.108,0.28311 0.108,0.63865 0,0.35554 -0.0164,0.4525 -0.108,0.63865 -0.13782,0.28008 -0.4076,0.54977 -0.68739,0.68716 -0.30731,0.1509 -0.87023,0.16901 -1.20159,0.0386 z"
       id="path19"
       transform="scale(0.26458333)" /><path
       style="fill:#ffffff;fill-opacity:0;stroke:#fff8f8;stroke-width:0;stroke-linejoin:round"
       d="m 337.88107,620.38103 c -0.82733,-0.067 -1.78347,-0.2656 -2.55565,-0.53069 -0.59491,-0.20423 -1.66605,-0.73662 -2.20976,-1.09832 -2.46866,-1.64225 -4.0864,-4.25569 -4.43215,-7.16011 -0.0618,-0.51919 -0.0623,-1.85475 -8.4e-4,-2.347 0.36334,-2.91074 1.9556,-5.50339 4.3668,-7.11039 0.94588,-0.63039 2.29659,-1.21612 3.33138,-1.44463 0.98413,-0.21732 2.4325,-0.29472 3.37666,-0.18044 3.35666,0.40629 6.27962,2.4742 7.76335,5.49233 0.47438,0.96497 0.74352,1.77027 0.90285,2.70143 0.35896,2.09791 0.0529,4.21177 -0.88315,6.09942 -1.0226,2.0622 -2.52657,3.56181 -4.5852,4.5719 -1.37459,0.67445 -2.59786,0.9733 -4.12562,1.00789 -0.40042,0.009 -0.82732,0.008 -0.94867,-10e-4 z m 1.95787,-2.02715 c 1.2034,-0.17671 2.21105,-0.55847 3.1883,-1.20792 1.32788,-0.88247 2.4373,-2.21797 2.98968,-3.59894 0.19003,-0.47507 0.375,-1.08338 0.41591,-1.36785 l 0.0254,-0.17649 -0.0471,0.15443 c -0.0259,0.0849 -0.10379,0.35697 -0.17309,0.60451 -0.65963,2.3565 -2.69772,4.45873 -5.0789,5.23875 -0.77652,0.25437 -1.31669,0.34136 -2.27925,0.36707 -1.01642,0.0272 -1.55881,-0.0262 -2.36665,-0.23282 -1.36925,-0.35022 -2.50638,-1.00585 -3.5549,-2.04965 -1.5671,-1.56004 -2.33391,-3.42496 -2.33532,-5.67954 -9.8e-4,-1.58515 0.41599,-3.05468 1.21195,-4.27127 0.3471,-0.53053 0.5963,-0.83555 1.09407,-1.33915 1.2051,-1.21919 2.58633,-1.9462 4.24784,-2.23584 0.24171,-0.0421 0.81673,-0.0906 1.27783,-0.1078 l 0.83836,-0.0312 -0.60845,-0.007 c -2.36625,-0.0282 -4.31,0.78316 -5.92518,2.47338 -1.40047,1.46554 -2.09652,3.13486 -2.168,5.19945 -0.0847,2.44523 0.66861,4.38574 2.35321,6.06214 1.25075,1.24467 2.79325,2.00504 4.51726,2.22678 0.50998,0.0656 1.8698,0.0537 2.37705,-0.0208 z m -0.17905,-2.51331 c 1.65462,-0.31458 3.19358,-1.52478 3.91237,-3.07659 l 0.14825,-0.32006 -5.1,-0.0112 c -2.80501,-0.006 -5.11037,-8.5e-4 -5.12304,0.0118 -0.0388,0.0388 0.26553,0.63552 0.53895,1.0567 0.31441,0.48432 0.97125,1.14966 1.46008,1.47897 0.80703,0.54368 1.56917,0.82251 2.58313,0.94506 0.28838,0.0349 1.21185,-0.0146 1.58026,-0.0847 z m 6.8938,-4.38547 c 0.0791,-0.68746 0.0334,-2.06168 -0.0889,-2.67349 -0.31697,-1.58565 -1.03383,-2.90007 -2.235,-4.09805 -0.91875,-0.91631 -2.03459,-1.5862 -3.2489,-1.95047 -0.44537,-0.1336 -1.26401,-0.28493 -1.50808,-0.27877 -0.10236,0.003 0.017,0.0313 0.27702,0.0666 2.13445,0.28984 4.0041,1.41998 5.33412,3.22432 0.76109,1.0325 1.20645,2.14246 1.40422,3.49969 0.0589,0.40454 0.0688,0.69533 0.0487,1.43404 -0.0139,0.50963 -0.0437,1.01259 -0.0663,1.11768 -0.0225,0.1051 -0.0249,0.17459 -0.005,0.15444 0.0196,-0.0201 0.0594,-0.24334 0.0885,-0.49597 z m -10.88321,-2.12409 c 0.32297,-0.12084 0.64961,-0.43284 0.80616,-0.77002 0.10407,-0.22415 0.12292,-0.32226 0.12292,-0.6398 0,-0.31755 -0.0188,-0.41566 -0.12292,-0.6398 -0.15824,-0.34083 -0.48259,-0.64874 -0.81553,-0.77421 -0.34054,-0.12833 -0.94949,-0.10809 -1.23714,0.0411 -0.28898,0.1499 -0.5641,0.42663 -0.7007,0.70478 -0.10754,0.21899 -0.12224,0.29935 -0.12221,0.66811 3e-5,0.335 0.019,0.46013 0.0943,0.62314 0.16953,0.36677 0.51243,0.68007 0.89326,0.81616 0.25396,0.0908 0.80029,0.0759 1.08185,-0.0295 z m 7.09118,-0.0345 c 0.26208,-0.12839 0.58249,-0.44987 0.70627,-0.70861 0.13811,-0.28872 0.16497,-0.83641 0.0579,-1.1813 -0.10509,-0.33862 -0.54399,-0.79242 -0.87938,-0.90924 -0.27611,-0.0962 -0.82388,-0.10095 -1.0832,-0.009 -0.3781,0.1334 -0.76765,0.52413 -0.90439,0.90711 -0.09,0.25209 -0.0905,0.79879 -10e-4,1.04949 0.13517,0.37855 0.5162,0.76851 0.88821,0.90904 0.2713,0.10248 0.95547,0.0704 1.21555,-0.057 z m -1.16542,0.0191 c -0.67057,-0.24757 -1.06192,-0.92416 -0.94944,-1.64144 0.0515,-0.32849 0.17679,-0.56219 0.43746,-0.81609 0.30168,-0.29385 0.61353,-0.40545 1.07686,-0.38538 0.41894,0.0181 0.69716,0.13562 0.97189,0.41035 0.30234,0.30233 0.39596,0.54778 0.39596,1.03808 0,0.35553 -0.0164,0.4525 -0.108,0.63865 -0.13782,0.28008 -0.4076,0.54977 -0.68739,0.68716 -0.26922,0.1322 -0.86743,0.16832 -1.13734,0.0687 z"
       id="path20"
       transform="scale(0.26458333)" /><path
       style="fill:#ffffff;fill-opacity:0;stroke:#fff8f8;stroke-width:0;stroke-linejoin:round"
       d="m 88.239004,162.0337 c 0.163798,-0.0137 0.328858,-0.009 0.493246,-0.009 0.02627,0 0.05254,0 0.0788,0 0.02141,0 0.04299,0.003 0.06421,0 0.01286,-0.002 0.02506,-0.007 0.03794,-0.009 0.03152,-0.004 0.07562,0 0.10799,0 0.08561,0 0.171225,0 0.256839,0 0.09923,0 0.198466,0 0.297701,0 0.04722,0 0.09582,-0.003 0.143012,0 0.0088,5.3e-4 0.01746,0.003 0.02627,0.003 0.01265,5.3e-4 0.02535,-0.001 0.03794,0 0.02249,0.002 0.04464,0.007 0.06713,0.009 0.02908,0.002 0.05837,0 0.08756,0 0.05254,0 0.105072,0 0.157605,0 0.02387,0 0.04917,-0.002 0.07297,0 0.04357,0.004 0.0874,0.003 0.131339,0.003 0.07296,0 0.145931,0 0.218897,0 0.0467,0 0.0934,0 0.140095,0 0.01945,0 0.03914,-0.003 0.05837,0 0.0052,7.9e-4 0.0094,0.005 0.01458,0.006 0.02072,0.004 0.05104,0 0.07297,0 0.04767,0 0.09534,0 0.143013,0"
       id="path21" /><path
       style="fill:#ffffff;fill-opacity:1;stroke:#fff8f8;stroke-width:0;stroke-linejoin:round"
       d="m 337.46362,615.77318 c -1.04607,-0.23471 -1.862,-0.69693 -2.68794,-1.5227 -0.55277,-0.55265 -0.90213,-1.04697 -1.16108,-1.64287 l -0.075,-0.17256 h 5.04992 5.04993 l -0.0652,0.1716 c -0.1205,0.31702 -0.4442,0.83538 -0.80596,1.29062 -0.62475,0.78618 -1.76811,1.5333 -2.77619,1.81407 -0.52701,0.14679 -1.99036,0.18258 -2.52847,0.0618 z"
       id="path22"
       transform="scale(0.26458333)" /><path
       style="fill:#ffffff;fill-opacity:1;stroke:#fff8f8;stroke-width:0;stroke-linejoin:round"
       d="m 337.21667,615.6719 c -0.96488,-0.25897 -2.02654,-0.96225 -2.75559,-1.82538 -0.33421,-0.39567 -0.72055,-0.99687 -0.83686,-1.30227 -0.0394,-0.10344 0.2222,-0.1092 4.95717,-0.1092 2.74932,0 4.99876,0.0158 4.99876,0.0351 0,0.11765 -0.37775,0.76951 -0.67921,1.17208 -0.7815,1.04358 -2.13269,1.91409 -3.2532,2.09588 -0.68078,0.11045 -1.89615,0.0773 -2.43107,-0.0662 z"
       id="path23"
       transform="scale(0.26458333)" /><path
       style="fill:#ffffff;fill-opacity:1;stroke:#fff8f8;stroke-width:0;stroke-linejoin:round"
       d="m 334.88063,609.37325 c -0.12134,-0.0158 -0.29466,-0.0598 -0.38516,-0.0979 -0.23125,-0.0974 -0.59504,-0.45136 -0.73317,-0.71347 -0.10248,-0.19447 -0.11673,-0.27264 -0.11673,-0.64067 0,-0.36944 0.014,-0.44584 0.11834,-0.64385 0.16037,-0.30448 0.54926,-0.65285 0.83457,-0.74761 0.34923,-0.116 0.87512,-0.0755 1.18086,0.0909 0.59726,0.32507 0.90031,0.98987 0.74259,1.629 -0.18805,0.76204 -0.86374,1.22461 -1.6413,1.12364 z"
       id="path24"
       transform="scale(0.26458333)" /><path
       style="fill:#ffffff;fill-opacity:1;stroke:#fff8f8;stroke-width:0;stroke-linejoin:round"
       d="m 341.53199,609.28563 c -0.26875,-0.10573 -0.62058,-0.42776 -0.75481,-0.69088 -0.19384,-0.37996 -0.19384,-0.96717 0,-1.34713 0.142,-0.27834 0.48519,-0.58531 0.77672,-0.69473 0.34815,-0.13067 0.86398,-0.112 1.17968,0.0427 0.27964,0.13703 0.5495,0.40671 0.68739,0.68694 0.0916,0.18615 0.108,0.28311 0.108,0.63865 0,0.35554 -0.0164,0.4525 -0.108,0.63865 -0.13782,0.28008 -0.4076,0.54977 -0.68739,0.68716 -0.30731,0.1509 -0.87023,0.16901 -1.20159,0.0386 z"
       id="path25"
       transform="scale(0.26458333)" /><path
       style="fill:#ffffff;fill-opacity:1;stroke:#fff8f8;stroke-width:0;stroke-linejoin:round"
       d="m 337.88107,620.38103 c -0.82733,-0.067 -1.78347,-0.2656 -2.55565,-0.53069 -0.59491,-0.20423 -1.66605,-0.73662 -2.20976,-1.09832 -2.46866,-1.64225 -4.0864,-4.25569 -4.43215,-7.16011 -0.0618,-0.51919 -0.0623,-1.85475 -8.4e-4,-2.347 0.36334,-2.91074 1.9556,-5.50339 4.3668,-7.11039 0.94588,-0.63039 2.29659,-1.21612 3.33138,-1.44463 0.98413,-0.21732 2.4325,-0.29472 3.37666,-0.18044 3.35666,0.40629 6.27962,2.4742 7.76335,5.49233 0.47438,0.96497 0.74352,1.77027 0.90285,2.70143 0.35896,2.09791 0.0529,4.21177 -0.88315,6.09942 -1.0226,2.0622 -2.52657,3.56181 -4.5852,4.5719 -1.37459,0.67445 -2.59786,0.9733 -4.12562,1.00789 -0.40042,0.009 -0.82732,0.008 -0.94867,-10e-4 z m 1.95787,-2.02715 c 1.55017,-0.22763 2.88219,-0.84199 4.05336,-1.8695 1.32883,-1.16584 2.18977,-2.63524 2.55973,-4.36882 0.11031,-0.51692 0.11836,-0.62968 0.11988,-1.67929 10e-4,-1.00727 -0.009,-1.17834 -0.10109,-1.6326 -0.39617,-1.95709 -1.46008,-3.62896 -3.08884,-4.8539 -1.30751,-0.98335 -2.72411,-1.46888 -4.46399,-1.52998 -2.47647,-0.087 -4.48849,0.71884 -6.15857,2.46651 -1.40047,1.46554 -2.09652,3.13486 -2.168,5.19945 -0.0847,2.44523 0.66861,4.38574 2.35321,6.06214 1.25075,1.24467 2.79325,2.00504 4.51726,2.22678 0.50998,0.0656 1.8698,0.0537 2.37705,-0.0208 z"
       id="path26"
       transform="scale(0.26458333)" /></g></svg>
